<mxfile host="app.diagrams.net" modified="2021-11-06T05:39:30.225Z" agent="5.0 (Windows NT 10.0; Win64; x64) AppleWebKit/537.36 (KHTML, like Gecko) Chrome/95.0.4638.54 Safari/537.36" etag="Wl1b6G8kTVNt6t5KJ7sn" version="15.7.0" type="github">
  <diagram id="C5RBs43oDa-KdzZeNtuy" name="Page-1">
    <mxGraphModel dx="1422" dy="796" grid="1" gridSize="10" guides="1" tooltips="1" connect="1" arrows="1" fold="1" page="1" pageScale="1" pageWidth="827" pageHeight="1169" background="#F4F1DE" math="0" shadow="0">
      <root>
        <mxCell id="WIyWlLk6GJQsqaUBKTNV-0" />
        <mxCell id="WIyWlLk6GJQsqaUBKTNV-1" parent="WIyWlLk6GJQsqaUBKTNV-0" />
        <mxCell id="BFZ73_izl6qh6AED6W8w-12" style="edgeStyle=orthogonalEdgeStyle;orthogonalLoop=1;jettySize=auto;html=1;exitX=0.5;exitY=1;exitDx=0;exitDy=0;entryX=0.5;entryY=0;entryDx=0;entryDy=0;labelBackgroundColor=#F4F1DE;strokeColor=#E07A5F;fontColor=#393C56;sketch=1;curved=1;" edge="1" parent="WIyWlLk6GJQsqaUBKTNV-1" source="BFZ73_izl6qh6AED6W8w-6" target="BFZ73_izl6qh6AED6W8w-8">
          <mxGeometry relative="1" as="geometry" />
        </mxCell>
        <mxCell id="BFZ73_izl6qh6AED6W8w-6" value="" style="whiteSpace=wrap;html=1;strokeWidth=2;fillWeight=4;hachureGap=8;hachureAngle=45;fillColor=#F2CC8F;strokeColor=#E07A5F;fontColor=#393C56;sketch=1;rounded=1;" vertex="1" parent="WIyWlLk6GJQsqaUBKTNV-1">
          <mxGeometry x="170" y="190" width="120" height="60" as="geometry" />
        </mxCell>
        <mxCell id="BFZ73_izl6qh6AED6W8w-11" style="edgeStyle=orthogonalEdgeStyle;orthogonalLoop=1;jettySize=auto;html=1;exitX=0.5;exitY=1;exitDx=0;exitDy=0;labelBackgroundColor=#F4F1DE;strokeColor=#E07A5F;fontColor=#393C56;sketch=1;curved=1;" edge="1" parent="WIyWlLk6GJQsqaUBKTNV-1" source="BFZ73_izl6qh6AED6W8w-7" target="BFZ73_izl6qh6AED6W8w-6">
          <mxGeometry relative="1" as="geometry" />
        </mxCell>
        <mxCell id="BFZ73_izl6qh6AED6W8w-7" value="" style="ellipse;whiteSpace=wrap;html=1;strokeWidth=2;fillWeight=2;hachureGap=8;fillColor=#F2CC8F;fillStyle=dots;strokeColor=#E07A5F;fontColor=#393C56;sketch=1;rounded=1;" vertex="1" parent="WIyWlLk6GJQsqaUBKTNV-1">
          <mxGeometry x="170" y="80" width="120" height="60" as="geometry" />
        </mxCell>
        <mxCell id="BFZ73_izl6qh6AED6W8w-13" value="好得很" style="edgeStyle=orthogonalEdgeStyle;orthogonalLoop=1;jettySize=auto;html=1;exitX=0.5;exitY=1;exitDx=0;exitDy=0;entryX=0.5;entryY=0;entryDx=0;entryDy=0;labelBackgroundColor=#F4F1DE;strokeColor=#E07A5F;fontColor=#393C56;sketch=1;curved=1;" edge="1" parent="WIyWlLk6GJQsqaUBKTNV-1" source="BFZ73_izl6qh6AED6W8w-8" target="BFZ73_izl6qh6AED6W8w-9">
          <mxGeometry relative="1" as="geometry" />
        </mxCell>
        <mxCell id="BFZ73_izl6qh6AED6W8w-14" style="edgeStyle=orthogonalEdgeStyle;orthogonalLoop=1;jettySize=auto;html=1;exitX=1;exitY=0.5;exitDx=0;exitDy=0;entryX=1;entryY=0.5;entryDx=0;entryDy=0;labelBackgroundColor=#F4F1DE;strokeColor=#E07A5F;fontColor=#393C56;sketch=1;curved=1;" edge="1" parent="WIyWlLk6GJQsqaUBKTNV-1" source="BFZ73_izl6qh6AED6W8w-8" target="BFZ73_izl6qh6AED6W8w-6">
          <mxGeometry relative="1" as="geometry">
            <Array as="points">
              <mxPoint x="380" y="330" />
              <mxPoint x="380" y="220" />
            </Array>
          </mxGeometry>
        </mxCell>
        <mxCell id="BFZ73_izl6qh6AED6W8w-15" value="不可以" style="edgeLabel;html=1;align=center;verticalAlign=middle;resizable=0;points=[];labelBackgroundColor=#F4F1DE;fontColor=#393C56;sketch=1;rounded=1;" vertex="1" connectable="0" parent="BFZ73_izl6qh6AED6W8w-14">
          <mxGeometry x="0.1379" y="-3" relative="1" as="geometry">
            <mxPoint as="offset" />
          </mxGeometry>
        </mxCell>
        <mxCell id="BFZ73_izl6qh6AED6W8w-8" value="ABCD" style="rhombus;whiteSpace=wrap;html=1;strokeWidth=2;fillWeight=-1;hachureGap=8;fillStyle=cross-hatch;fillColor=#F2CC8F;fontFamily=chris;fontSource=https%3A%2F%2Fwww.1001fonts.com%2Fdownload%2Fchristmas-uniform.zip;strokeColor=#E07A5F;fontColor=#393C56;sketch=1;rounded=1;" vertex="1" parent="WIyWlLk6GJQsqaUBKTNV-1">
          <mxGeometry x="170" y="290" width="120" height="80" as="geometry" />
        </mxCell>
        <mxCell id="BFZ73_izl6qh6AED6W8w-9" value="完成啦" style="whiteSpace=wrap;html=1;strokeWidth=2;fillWeight=4;hachureGap=8;hachureAngle=45;fillColor=#F2CC8F;arcSize=50;fontFamily=chris;fontSource=https%3A%2F%2Fwww.1001fonts.com%2Fdownload%2Fchristmas-uniform.zip;strokeColor=#E07A5F;fontColor=#393C56;sketch=1;rounded=1;" vertex="1" parent="WIyWlLk6GJQsqaUBKTNV-1">
          <mxGeometry x="170" y="420" width="120" height="60" as="geometry" />
        </mxCell>
      </root>
    </mxGraphModel>
  </diagram>
</mxfile>
